<mxfile host="app.diagrams.net" modified="2024-03-08T14:47:56.482Z" agent="Mozilla/5.0 (Windows NT 10.0; Win64; x64) AppleWebKit/537.36 (KHTML, like Gecko) Chrome/122.0.0.0 Safari/537.36" etag="O1cg1fZBzheeqIZzi_ZW" version="24.0.2" type="github">
  <diagram name="Página-1" id="qLqDitnle6DMbWgOVLHB">
    <mxGraphModel dx="756" dy="432" grid="1" gridSize="10" guides="1" tooltips="1" connect="1" arrows="1" fold="1" page="1" pageScale="1" pageWidth="827" pageHeight="1169" math="0" shadow="0">
      <root>
        <mxCell id="0" />
        <mxCell id="1" parent="0" />
        <mxCell id="k1zBpDuwUB03RxxuyWRL-1" value="1997&lt;div&gt;Ano do nascimento&lt;/div&gt;" style="rounded=0;whiteSpace=wrap;html=1;fillColor=#dae8fc;strokeColor=#6c8ebf;" vertex="1" parent="1">
          <mxGeometry y="280" width="70" height="60" as="geometry" />
        </mxCell>
        <mxCell id="k1zBpDuwUB03RxxuyWRL-2" value="" style="endArrow=none;html=1;rounded=0;" edge="1" parent="1">
          <mxGeometry width="50" height="50" relative="1" as="geometry">
            <mxPoint x="10" y="240" as="sourcePoint" />
            <mxPoint x="1630" y="240" as="targetPoint" />
          </mxGeometry>
        </mxCell>
        <mxCell id="k1zBpDuwUB03RxxuyWRL-4" value="" style="endArrow=classic;startArrow=classic;html=1;rounded=0;" edge="1" parent="1">
          <mxGeometry width="50" height="50" relative="1" as="geometry">
            <mxPoint x="30" y="280" as="sourcePoint" />
            <mxPoint x="30" y="240" as="targetPoint" />
          </mxGeometry>
        </mxCell>
        <mxCell id="k1zBpDuwUB03RxxuyWRL-5" value="2002&amp;nbsp;&lt;div&gt;Festa de 5 anos com tema dos Dalmatas&lt;/div&gt;" style="rounded=0;whiteSpace=wrap;html=1;fillColor=#f5f5f5;strokeColor=#666666;fontColor=#333333;" vertex="1" parent="1">
          <mxGeometry x="70" y="120" width="60" height="80" as="geometry" />
        </mxCell>
        <mxCell id="k1zBpDuwUB03RxxuyWRL-6" value="2012&lt;div&gt;Finalizado o ensino fundamental&lt;/div&gt;" style="rounded=0;whiteSpace=wrap;html=1;fillColor=#ffe6cc;strokeColor=#d79b00;" vertex="1" parent="1">
          <mxGeometry x="130" y="280" width="70" height="70" as="geometry" />
        </mxCell>
        <mxCell id="k1zBpDuwUB03RxxuyWRL-7" value="" style="endArrow=classic;startArrow=classic;html=1;rounded=0;" edge="1" parent="1">
          <mxGeometry width="50" height="50" relative="1" as="geometry">
            <mxPoint x="99.38" y="240" as="sourcePoint" />
            <mxPoint x="99.38" y="200" as="targetPoint" />
          </mxGeometry>
        </mxCell>
        <mxCell id="k1zBpDuwUB03RxxuyWRL-8" value="" style="endArrow=classic;startArrow=classic;html=1;rounded=0;" edge="1" parent="1">
          <mxGeometry width="50" height="50" relative="1" as="geometry">
            <mxPoint x="164.38" y="280" as="sourcePoint" />
            <mxPoint x="164.38" y="240" as="targetPoint" />
          </mxGeometry>
        </mxCell>
        <mxCell id="k1zBpDuwUB03RxxuyWRL-11" value="2013&lt;div&gt;Passeio pelo Hoppy Hari&lt;/div&gt;" style="rounded=0;whiteSpace=wrap;html=1;fillColor=#f8cecc;strokeColor=#b85450;" vertex="1" parent="1">
          <mxGeometry x="200" y="130" width="50" height="70" as="geometry" />
        </mxCell>
        <mxCell id="k1zBpDuwUB03RxxuyWRL-13" value="&lt;div&gt;2016&lt;/div&gt;&lt;div&gt;- Campeão absoluto em damas. Campeão de xadrez. 3º lugar em vôlei&lt;/div&gt;&lt;div&gt;-&amp;nbsp;&lt;span style=&quot;background-color: initial;&quot;&gt;Visita técnica a hidroelétrica&lt;/span&gt;&lt;/div&gt;" style="rounded=0;whiteSpace=wrap;html=1;" vertex="1" parent="1">
          <mxGeometry x="350" y="60" width="90" height="140" as="geometry" />
        </mxCell>
        <mxCell id="k1zBpDuwUB03RxxuyWRL-14" value="2017&lt;div&gt;- mudei de endereço&lt;/div&gt;&lt;div&gt;- Concluí o curso no Senai de eltroeletrônica&lt;br&gt;&lt;/div&gt;&lt;div&gt;- Formatura do Senai&lt;/div&gt;&lt;div&gt;-&amp;nbsp;&lt;span style=&quot;background-color: initial;&quot;&gt;Viagem para passar um tempo com os meus avós&lt;/span&gt;&lt;/div&gt;&lt;div&gt;&lt;span style=&quot;background-color: initial;&quot;&gt;-&amp;nbsp;&lt;/span&gt;&lt;span style=&quot;background-color: initial;&quot;&gt;Dia 11/11/2017 comecei meu trabalho na TP (telemarketing Credsystem)&lt;/span&gt;&lt;/div&gt;" style="rounded=0;whiteSpace=wrap;html=1;" vertex="1" parent="1">
          <mxGeometry x="440" y="280" width="110" height="240" as="geometry" />
        </mxCell>
        <mxCell id="k1zBpDuwUB03RxxuyWRL-15" value="2015&lt;div&gt;- Nascimento do meu irmão mais novo em 04/02/2015.&lt;/div&gt;&lt;div&gt;-&amp;nbsp;&lt;span style=&quot;background-color: initial;&quot;&gt;No começo do ano até Julho fiz as etapas para o curso no senai de Eletroeletrônica&lt;/span&gt;&lt;/div&gt;&lt;div&gt;-&amp;nbsp;&lt;span style=&quot;background-color: initial;&quot;&gt;Concluí o ensino médio&lt;/span&gt;&lt;/div&gt;&lt;div&gt;&lt;span style=&quot;background-color: initial;&quot;&gt;-&amp;nbsp;&lt;/span&gt;&lt;span style=&quot;background-color: initial;&quot;&gt;Campeão absoluto em damas do Senai&lt;/span&gt;&lt;/div&gt;&lt;div&gt;&lt;span style=&quot;background-color: initial;&quot;&gt;- Festa de 17 anos&lt;/span&gt;&lt;/div&gt;" style="rounded=0;whiteSpace=wrap;html=1;fillColor=#d5e8d4;strokeColor=#82b366;" vertex="1" parent="1">
          <mxGeometry x="250" y="280" width="100" height="270" as="geometry" />
        </mxCell>
        <mxCell id="k1zBpDuwUB03RxxuyWRL-23" value="2018&lt;div&gt;Comecei a ganhar visibilidade como apoio operacional na TP&lt;/div&gt;" style="rounded=0;whiteSpace=wrap;html=1;" vertex="1" parent="1">
          <mxGeometry x="520" y="140" width="160" height="60" as="geometry" />
        </mxCell>
        <mxCell id="k1zBpDuwUB03RxxuyWRL-24" value="2019&lt;div&gt;Promovido a backoffice&lt;/div&gt;" style="rounded=0;whiteSpace=wrap;html=1;" vertex="1" parent="1">
          <mxGeometry x="600" y="560" width="120" height="60" as="geometry" />
        </mxCell>
        <mxCell id="k1zBpDuwUB03RxxuyWRL-25" value="2019&lt;div&gt;Primeira férias na empresa&lt;/div&gt;" style="rounded=0;whiteSpace=wrap;html=1;" vertex="1" parent="1">
          <mxGeometry x="460" y="540" width="120" height="60" as="geometry" />
        </mxCell>
        <mxCell id="k1zBpDuwUB03RxxuyWRL-26" value="2020&amp;nbsp;&lt;div&gt;comecei o home office&lt;/div&gt;" style="rounded=0;whiteSpace=wrap;html=1;" vertex="1" parent="1">
          <mxGeometry x="840" y="560" width="120" height="60" as="geometry" />
        </mxCell>
        <mxCell id="k1zBpDuwUB03RxxuyWRL-27" value="2021&lt;div&gt;Doença grave (Problemas psicológicos). Precisei cuidar da saúde por 60 dias&lt;/div&gt;" style="rounded=0;whiteSpace=wrap;html=1;" vertex="1" parent="1">
          <mxGeometry x="780" y="280" width="80" height="120" as="geometry" />
        </mxCell>
        <mxCell id="k1zBpDuwUB03RxxuyWRL-28" value="2022&lt;div&gt;Primeira vez como Instrutor de treinamento por 60 dias&lt;/div&gt;" style="rounded=0;whiteSpace=wrap;html=1;" vertex="1" parent="1">
          <mxGeometry x="1120" y="560" width="130" height="60" as="geometry" />
        </mxCell>
        <mxCell id="k1zBpDuwUB03RxxuyWRL-29" value="2022&lt;div&gt;- Perda do emprego&lt;/div&gt;&lt;div&gt;-&amp;nbsp;&lt;span style=&quot;background-color: initial;&quot;&gt;Outra perda de emprego&lt;/span&gt;&lt;/div&gt;" style="rounded=0;whiteSpace=wrap;html=1;" vertex="1" parent="1">
          <mxGeometry x="930" y="310" width="130" height="60" as="geometry" />
        </mxCell>
        <mxCell id="k1zBpDuwUB03RxxuyWRL-30" value="2022&lt;div&gt;Novo emprego na área de treinamento&lt;/div&gt;" style="rounded=0;whiteSpace=wrap;html=1;" vertex="1" parent="1">
          <mxGeometry x="1380" y="560" width="130" height="60" as="geometry" />
        </mxCell>
        <mxCell id="k1zBpDuwUB03RxxuyWRL-32" value="2022&lt;div&gt;Novo emprego na Atento&lt;/div&gt;" style="rounded=0;whiteSpace=wrap;html=1;" vertex="1" parent="1">
          <mxGeometry x="40" y="920" width="120" height="60" as="geometry" />
        </mxCell>
        <mxCell id="k1zBpDuwUB03RxxuyWRL-33" value="" style="endArrow=none;html=1;rounded=0;" edge="1" parent="1">
          <mxGeometry width="50" height="50" relative="1" as="geometry">
            <mxPoint x="39.33" y="880" as="sourcePoint" />
            <mxPoint x="1600.6633740234374" y="880" as="targetPoint" />
          </mxGeometry>
        </mxCell>
        <mxCell id="k1zBpDuwUB03RxxuyWRL-34" value="2023&lt;div&gt;Pedi o desligamento da atento&lt;/div&gt;" style="rounded=0;whiteSpace=wrap;html=1;" vertex="1" parent="1">
          <mxGeometry x="160" y="780" width="120" height="60" as="geometry" />
        </mxCell>
        <mxCell id="k1zBpDuwUB03RxxuyWRL-35" value="2023&lt;div&gt;Novo emprego na AEC implantação da TOYOTA&lt;/div&gt;" style="rounded=0;whiteSpace=wrap;html=1;" vertex="1" parent="1">
          <mxGeometry x="280" y="920" width="120" height="60" as="geometry" />
        </mxCell>
        <mxCell id="k1zBpDuwUB03RxxuyWRL-36" value="2023&lt;div&gt;Pedi o desligamento da AEC&lt;/div&gt;" style="rounded=0;whiteSpace=wrap;html=1;" vertex="1" parent="1">
          <mxGeometry x="400" y="780" width="120" height="60" as="geometry" />
        </mxCell>
        <mxCell id="k1zBpDuwUB03RxxuyWRL-37" value="2023&lt;div&gt;Em outubro comecei a trabalhar na concentrix de madrugada&lt;/div&gt;" style="rounded=0;whiteSpace=wrap;html=1;" vertex="1" parent="1">
          <mxGeometry x="520" y="920" width="130" height="70" as="geometry" />
        </mxCell>
        <mxCell id="k1zBpDuwUB03RxxuyWRL-38" value="2023&lt;div&gt;Me inscrevi no curso do Senai da Ford&lt;/div&gt;" style="rounded=0;whiteSpace=wrap;html=1;" vertex="1" parent="1">
          <mxGeometry x="650" y="770" width="130" height="70" as="geometry" />
        </mxCell>
        <mxCell id="k1zBpDuwUB03RxxuyWRL-39" value="2023&lt;div&gt;Morte da minha amada companheira Cleo (pet)&lt;/div&gt;" style="rounded=0;whiteSpace=wrap;html=1;" vertex="1" parent="1">
          <mxGeometry x="780" y="920" width="130" height="70" as="geometry" />
        </mxCell>
        <mxCell id="k1zBpDuwUB03RxxuyWRL-40" value="2023&lt;div&gt;Adotei o Frajola&lt;/div&gt;" style="rounded=0;whiteSpace=wrap;html=1;" vertex="1" parent="1">
          <mxGeometry x="910" y="770" width="130" height="70" as="geometry" />
        </mxCell>
        <mxCell id="k1zBpDuwUB03RxxuyWRL-41" value="2024&lt;div&gt;Iniciei o curso no Senai&lt;/div&gt;" style="rounded=0;whiteSpace=wrap;html=1;" vertex="1" parent="1">
          <mxGeometry x="1040" y="920" width="130" height="70" as="geometry" />
        </mxCell>
        <mxCell id="k1zBpDuwUB03RxxuyWRL-42" value="2024&lt;div&gt;Autoavaliação para me tornar uma pessoa melhor&lt;/div&gt;" style="rounded=0;whiteSpace=wrap;html=1;" vertex="1" parent="1">
          <mxGeometry x="1170" y="770" width="130" height="70" as="geometry" />
        </mxCell>
        <mxCell id="k1zBpDuwUB03RxxuyWRL-43" value="" style="endArrow=classic;startArrow=classic;html=1;rounded=0;" edge="1" parent="1">
          <mxGeometry width="50" height="50" relative="1" as="geometry">
            <mxPoint x="224.38" y="240" as="sourcePoint" />
            <mxPoint x="224.38" y="200" as="targetPoint" />
          </mxGeometry>
        </mxCell>
        <mxCell id="k1zBpDuwUB03RxxuyWRL-44" value="" style="endArrow=classic;startArrow=classic;html=1;rounded=0;exitX=0.5;exitY=0;exitDx=0;exitDy=0;" edge="1" parent="1" source="k1zBpDuwUB03RxxuyWRL-15">
          <mxGeometry width="50" height="50" relative="1" as="geometry">
            <mxPoint x="299.74000000000007" y="275" as="sourcePoint" />
            <mxPoint x="299.37" y="240" as="targetPoint" />
          </mxGeometry>
        </mxCell>
        <mxCell id="k1zBpDuwUB03RxxuyWRL-45" value="" style="endArrow=classic;startArrow=classic;html=1;rounded=0;" edge="1" parent="1">
          <mxGeometry width="50" height="50" relative="1" as="geometry">
            <mxPoint x="394.38000000000005" y="240" as="sourcePoint" />
            <mxPoint x="394.38000000000005" y="200" as="targetPoint" />
          </mxGeometry>
        </mxCell>
        <mxCell id="k1zBpDuwUB03RxxuyWRL-46" value="" style="endArrow=classic;startArrow=classic;html=1;rounded=0;" edge="1" parent="1">
          <mxGeometry width="50" height="50" relative="1" as="geometry">
            <mxPoint x="499.37000000000006" y="280" as="sourcePoint" />
            <mxPoint x="499.37000000000006" y="240" as="targetPoint" />
          </mxGeometry>
        </mxCell>
        <mxCell id="k1zBpDuwUB03RxxuyWRL-47" value="" style="endArrow=classic;startArrow=classic;html=1;rounded=0;" edge="1" parent="1">
          <mxGeometry width="50" height="50" relative="1" as="geometry">
            <mxPoint x="589.3700000000001" y="240" as="sourcePoint" />
            <mxPoint x="589.3700000000001" y="200" as="targetPoint" />
          </mxGeometry>
        </mxCell>
      </root>
    </mxGraphModel>
  </diagram>
</mxfile>
